<?xml version="1.0" encoding="UTF-8"?>
<svg xmlns="http://www.w3.org/2000/svg" version="1.1" viewBox="0 0 241.4 169.1">
    <path class="cls-1" d="M43.6,1.2v130.9h52.3v37H0V1.2h43.6Z" fill="#d21437"/>
    <path d="M200.7,38.1h-52.6v28.1h47.9v37h-47.9v65.9h-43.6V1.2h96.2v37Z"/>
    <path d="M236.4,15.1c0,4.2-1.5,7.8-4.4,10.7s-6.5,4.4-10.6,4.4-7.7-1.5-10.7-4.4c-2.9-2.9-4.4-6.5-4.4-10.7s.5-4.4,1.4-6.4c1-2,2.3-3.8,4-5.2C214.6,1.2,217.7,0,221.2,0s4.4.4,6.3,1.3c2.7,1.2,4.8,3,6.4,5.5,1.6,2.6,2.5,5.3,2.5,8.2h0s0,0,0,0ZM221.3,2.2c-3.4,0-6.4,1.3-8.8,3.8-2.5,2.6-3.7,5.6-3.7,9s1.2,6.6,3.7,9.2c2.4,2.5,5.4,3.8,8.9,3.8s6.4-1.3,8.9-3.8c2.4-2.5,3.7-5.6,3.7-9.2s-.5-3.9-1.4-5.9c-.9-1.9-2.2-3.4-3.8-4.6-2.2-1.6-4.7-2.4-7.4-2.4h0s0,0,0,0ZM222.8,16.5l5.7,7.3h-4.1l-5.2-6.9v6.9h-3.3V6.4h3.5c2.4,0,4.2.4,5.3,1.3,1.2,1,1.9,2.3,1.9,3.9s-.3,2.1-1,3c-.7.9-1.5,1.5-2.5,1.8h-.2c0,0,0,0,0,0ZM219.3,14.1h.6c2.4,0,3.6-.8,3.6-2.5s-1.1-2.3-3.5-2.3h-.7v4.7h0Z"/>
</svg>
